<?xml version="1.0" encoding="UTF-8" standalone="no"?>
<svg
   xmlns:dc="http://purl.org/dc/elements/1.1/"
   xmlns:cc="http://creativecommons.org/ns#"
   xmlns:rdf="http://www.w3.org/1999/02/22-rdf-syntax-ns#"
   xmlns:svg="http://www.w3.org/2000/svg"
   xmlns="http://www.w3.org/2000/svg"
   xmlns:sodipodi="http://sodipodi.sourceforge.net/DTD/sodipodi-0.dtd"
   xmlns:inkscape="http://www.inkscape.org/namespaces/inkscape"
   id="svg14023"
   version="1.1"
   viewBox="0 0 270.93333 85.725"
   height="324"
   width="1024"
   sodipodi:docname="autograd.svg"
   inkscape:version="0.92.4 5da689c313, 2019-01-14">
  <sodipodi:namedview
     pagecolor="#ffffff"
     bordercolor="#666666"
     borderopacity="1"
     objecttolerance="10"
     gridtolerance="10"
     guidetolerance="10"
     inkscape:pageopacity="0"
     inkscape:pageshadow="2"
     inkscape:window-width="1920"
     inkscape:window-height="1061"
     id="namedview5342"
     showgrid="false"
     inkscape:zoom="1.6738281"
     inkscape:cx="512"
     inkscape:cy="180.2983"
     inkscape:window-x="0"
     inkscape:window-y="19"
     inkscape:window-maximized="0"
     inkscape:current-layer="svg14023" />
  <defs
     id="defs14017" />
  <metadata
     id="metadata14020">
    <rdf:RDF>
      <cc:Work
         rdf:about="">
        <dc:format>image/svg+xml</dc:format>
        <dc:type
           rdf:resource="http://purl.org/dc/dcmitype/StillImage" />
        <dc:title></dc:title>
      </cc:Work>
    </rdf:RDF>
  </metadata>
  <g
     transform="matrix(-0.125,0,0,0.125,273.836,48.070835)"
     id="layer1">
    <g
       transform="translate(37.454577,-27.290346)"
       id="g15549">
      <path
         style="fill:#ffcc00;fill-opacity:1;stroke:none;stroke-width:0.26458332px;stroke-linecap:butt;stroke-linejoin:miter;stroke-opacity:1"
         d="m 24.414385,291.71653 153.145445,0.26729 -0.26727,-256.845998 151.44965,0.29188 -1.24418,-75.394621 c 0,0 -2.93997,-21.381561 -14.43254,-33.408689 -11.4926,-12.02713 -38.85207,-22.599627 -59.06658,-26.459685 -53.18663,-10.156257 -99.9588,-9.087177 -155.016329,0.534541 -12.637413,2.20848 -36.081384,9.354433 -51.048477,27.796029 -14.967094,18.441598 -21.648832,34.2105 -21.381562,43.832203 0.267269,9.621702 -2.138157,319.38705 -2.138157,319.38705 z"
         id="path14197" />
      <circle
         style="fill:#ffffff;fill-opacity:1;stroke:none;stroke-width:0.79374999;stroke-miterlimit:4;stroke-dasharray:none;stroke-opacity:1"
         id="path14199"
         cx="262.59637"
         cy="-32.228024"
         r="30.238094" />
      <path
         id="path13989"
         d="m 36.65323,-76.95941 c -10.167487,-6.714716 -10.237669,-6.792819 -9.848297,-10.959378 1.263836,-13.524022 -6.489268,-37.374722 -14.860707,-45.715692 -5.3496049,-5.33016 -6.3840239,-9.02763 -4.3253169,-15.46069 1.2738815,-3.98063 1.1803071,-4.48051 -1.937945,-10.35207 -1.8020509,-3.39321 -3.112488,-6.38506 -2.912083,-6.6486 0.71374,-0.93861 17.1424479,-7.28572 17.7204519,-6.84618 0.323789,0.24623 -0.667615,4.5444 -2.203127,9.55152 -1.535514,5.0071 -2.490289,9.0628 -2.121726,9.01264 0.368565,-0.0502 3.056974,-2.46165 5.974252,-5.35885 l 5.304132,-5.26767 4.25508,12.8708 c 2.340284,7.07892 4.707481,14.04672 5.26043,15.484 0.988353,2.56899 0.864983,2.56144 -7.294029,-0.44355 -4.564668,-1.6812 -8.678671,-3.0051 -9.142231,-2.94203 -0.463556,0.063 0.460957,2.28871 2.054475,4.94585 10.933075,18.23047 26.598503,23.16212 40.630359,12.79083 7.280394,-5.38113 10.358001,-10.84811 10.079421,-17.90483 -0.194138,-4.91792 -0.602024,-5.77212 -3.857765,-8.07923 -5.186997,-3.67565 -8.157303,-3.66791 -14.930597,0.0384 -3.258678,1.78334 -7.402516,3.4435 -9.208531,3.68928 -3.960786,0.53898 -8.275356,-2.46393 -8.770757,-6.1044 -0.487827,-3.58483 2.950834,-10.26137 7.291903,-14.15798 3.07434,-2.75958 4.646274,-3.28888 11.541726,-3.88618 l 7.982671,-0.69149 -2.533455,-7.13266 c -2.909151,-8.19044 -3.221451,-14.8532 -1.048713,-22.3745 0.837826,-2.90028 1.139408,-5.22098 0.670213,-5.15715 -1.29014,0.17556 -17.597268,15.09427 -24.107086,22.05455 -3.155103,3.37343 -6.118959,6.18554 -6.586332,6.24914 -0.467379,0.0637 -1.815322,-0.69758 -2.995409,-1.69151 -2.007663,-1.69099 -2.002738,-1.97777 0.07663,-4.46043 4.858851,-5.80128 19.334152,-19.11209 28.013272,-25.75976 11.878838,-9.09846 25.682243,-17.07472 38.511399,-22.2537 13.374502,-5.39912 17.170142,-5.90207 19.995782,-2.64959 2.93488,3.37823 9.21059,16.13495 11.06955,22.50136 1.44248,4.93989 1.39197,5.15666 -1.28601,5.52107 -2.56364,0.34887 -2.91304,-0.13535 -4.35223,-6.03201 -1.62688,-6.66544 -7.8218,-21.0338 -8.99967,-20.8735 -3.00993,0.40958 -25.056136,11.24249 -33.892009,16.65362 -15.239908,9.33296 -14.67695,8.52248 -8.738467,12.58053 6.549384,4.47551 11.508567,12.64493 12.790231,21.06974 0.541529,3.55969 1.009093,6.46883 1.039037,6.46476 0.02996,-0.004 1.907557,-1.29358 4.172494,-2.86559 8.152204,-5.65814 17.016274,-4.37493 21.748104,3.14841 3.78391,6.01614 3.98226,8.83784 0.84883,12.07557 -3.32579,3.43649 -5.69663,3.77943 -9.732631,1.40779 -7.570152,-4.44838 -15.407574,0.8969 -15.189795,10.35968 0.159647,6.93679 3.537844,12.19645 9.761354,15.19779 4.140432,1.99675 6.718501,2.32347 13.923092,1.76455 7.44344,-0.57748 10.13177,-1.33739 16.99811,-4.8045 10.81379,-5.46044 20.75788,-6.85888 33.2144,-4.67092 22.28636,3.91457 34.68813,-3.61536 32.5693,-19.77503 -0.66636,-5.08136 -1.28739,-6.35751 -3.8515,-7.91341 -2.37398,-1.44055 -3.92119,-1.55802 -6.9239,-0.52566 -7.8317,2.69257 -9.17579,2.57683 -12.45554,-1.07268 -9.33751,-10.39024 -0.22859,-23.34599 13.60451,-19.34992 2.91873,0.84314 6.11092,2.5004 7.09378,3.68283 2.89933,3.488 3.55513,2.31918 2.60722,-4.64666 -0.49124,-3.60981 -0.46891,-9.30721 0.0497,-12.66084 0.94753,-6.12756 5.59679,-14.74077 8.14388,-15.08738 2.13163,-0.29008 6.16663,6.73499 7.86493,13.69308 1.0215,4.18532 1.253,8.80438 0.68612,13.68896 -0.4706,4.05471 -0.82985,7.56168 -0.79833,7.7932 0.0315,0.23157 2.55338,-1.18234 5.60417,-3.14197 8.05374,-5.1733 14.91413,-5.87253 20.60601,-2.10026 7.15074,4.73911 8.69979,12.78529 3.72175,19.33158 -3.37485,4.43805 -5.10226,4.55015 -13.61359,0.88362 -3.90151,-1.68073 -7.53757,-2.99543 -8.08013,-2.92159 -4.39599,0.5982 -6.73169,7.3188 -5.56267,16.00552 1.07935,8.01993 15.45759,17.04421 25.11676,15.76404 5.23275,-0.69342 13.75267,-6.35727 17.59334,-11.6954 3.11777,-4.33344 8.26375,-17.49883 7.91601,-20.25217 -0.21185,-1.67766 -2.36274,-0.90252 -9.56904,3.44847 -2.48165,1.49837 -4.56276,2.35196 -4.62468,1.89687 -0.24032,-1.76601 3.84644,-24.30731 4.59468,-25.34265 0.43552,-0.60269 3.33993,0.19018 6.45423,1.7619 l 5.66235,2.85772 -0.43546,-3.15543 c -0.24017,-1.73535 -1.24307,-5.03275 -2.22975,-7.32731 -0.98669,-2.29461 -1.63199,-4.38502 -1.434,-4.64537 0.37287,-0.49035 12.41014,0.78783 13.2201,1.40375 0.25177,0.19145 -0.22118,3.41737 -1.05102,7.16873 -1.43589,6.4913 -1.39249,6.99798 0.89877,10.49345 3.63611,5.54728 3.68589,9.50285 0.19684,15.64324 -1.70374,2.99842 -4.19624,9.71052 -5.53886,14.91574 -2.0919,8.11011 -2.25499,10.83591 -1.13992,19.05268 0.71563,5.2737 2.07754,11.63218 3.02637,14.12994 l 1.7252,4.54137 -5.51671,6.93233 c -10.01422,12.583913 -8.91694,11.903961 -16.45449,10.196445 -27.1773,-6.156565 -65.46411,-5.758405 -107.95081,1.1226 -35.04926,5.676444 -63.906788,14.083226 -83.523995,24.332175 -3.929557,2.052969 -7.340107,3.736295 -7.579007,3.740687 -0.238904,0.0035 -5.042567,-3.035309 -10.67483,-6.754918 z m 0.866243,-10.866158 c 0.203255,-2.824365 -0.372496,-3.977765 -2.875635,-5.760768 -3.697476,-2.63374 -5.002067,-1.908912 -5.304225,2.947035 -0.182748,2.937002 0.38901,3.96813 3.229104,5.823514 3.86279,2.523502 4.584108,2.084972 4.950756,-3.009781 z M 257.21896,-120.95402 c -1.82206,-5.27398 -3.37731,-5.76816 -6.25277,-1.98685 -2.35106,3.09175 -2.3967,3.6162 -0.62986,7.23655 l 1.90487,3.90324 3.07295,-2.88594 c 2.62525,-2.46553 2.90276,-3.3785 1.90481,-6.267 z M 62.062358,-89.323959 c 0.705331,-1.89599 0.34361,-2.62187 -1.876569,-3.765788 -3.584287,-1.846757 -4.239968,-1.686506 -5.354138,1.308517 -0.689695,1.853956 -0.525854,2.868014 0.635646,3.93464 2.218008,2.036755 5.566809,1.286591 6.595022,-1.477369 z M 230.76212,-112.54851 c 0.45563,-2.62156 -2.93468,-5.59086 -5.14345,-4.50477 -1.80925,0.88964 -2.81674,4.25137 -1.81918,6.07022 1.44875,2.6415 6.42598,1.52242 6.96263,-1.56545 z m -135.889341,12.4753 c 3.813761,-2.70361 7.964461,-8.70473 7.973141,-11.52767 0.0185,-6.03064 -4.348087,-9.20233 -13.204573,-9.59111 -5.03938,-0.22122 -12.273055,3.6766 -15.619706,8.41659 -5.232544,7.41102 2.649227,16.799906 12.928853,15.40105 2.801045,-0.381183 6.366085,-1.595666 7.922285,-2.69886 z m 25.197231,-5.54203 c 1.14573,-2.51972 -0.94791,-5.68757 -3.87367,-5.86112 -2.70596,-0.16052 -4.06443,4.34705 -2.11966,7.03324 1.79727,2.48248 4.57893,1.93846 5.99333,-1.17212 z m 49.98272,-9.34973 c -0.43314,-3.1829 -4.43356,-4.36347 -6.64079,-1.95979 -2.04192,2.22365 -1.20526,6.73972 1.28969,6.96147 3.23577,0.28753 5.75092,-2.0634 5.3511,-5.00168 z m 37.23101,-3.00235 c 3.97298,-3.90352 4.49383,-8.57327 1.31686,-11.8068 -5.81432,-5.91783 -13.05584,-7.58839 -21.18668,-4.88763 -7.91985,2.63067 -10.71665,10.69579 -5.62038,16.20742 5.50808,5.95699 19.64788,6.22714 25.4902,0.48701 z m -60.91685,2.8245 c 1.23616,-2.96631 2.172,-5.94826 2.07969,-6.62659 -0.20442,-1.50213 -7.05049,-9.43868 -8.02718,-9.30575 -0.78889,0.10733 -4.54158,9.87346 -4.3424,11.30087 0.14024,1.0087 7.12243,10.14989 7.69278,10.07229 0.19228,-0.026 1.361,-2.47455 2.59711,-5.44082 z m 83.56895,-11.45481 c -0.38105,-2.8001 -0.97176,-3.37404 -3.42323,-3.32618 -4.00839,0.0785 -5.82719,3.04824 -3.68162,6.01176 1.14598,1.58285 2.46425,2.00243 4.58675,1.45986 2.49289,-0.63727 2.90349,-1.31322 2.5181,-4.14544 z m -172.677156,23.71807 c 0.778037,-1.77033 0.48707,-2.4767 -1.462438,-3.55043 -2.797196,-1.54053 -4.150103,-1.12751 -5.417216,1.65374 -0.636487,1.39704 -0.38238,2.44005 0.876014,3.5956 2.162927,1.986188 4.699544,1.268379 6.00364,-1.69891 z m 59.327986,-16.28047 c 2.49691,-4.00508 -2.67947,-9.06194 -5.79883,-5.66497 -1.88777,2.05578 -1.4967,6.74545 0.60697,7.27873 2.65414,0.67285 4.03361,0.24405 5.19186,-1.61376 z m 52.02748,-10.59761 c -0.35307,-2.5946 -1.03016,-3.37216 -2.94686,-3.38414 -3.03852,-0.019 -4.16471,4.19336 -1.72105,6.43729 2.63741,2.42188 5.1861,0.75482 4.66791,-3.05315 z m -154.1446,-8.54982 c 0.293862,-2.42633 -2.722597,-6.27806 -4.7052926,-6.00826 -1.8342843,0.24961 -1.3632982,5.35354 0.6505426,7.04971 2.760019,2.32465 3.675541,2.0895 4.05475,-1.04145 z m 251.36706,-35.68488 c 0.57878,-2.4591 -1.01126,-5.03241 -2.94678,-4.76902 -1.93554,0.26338 -2.78014,3.16799 -1.56528,5.38303 0.48374,0.88203 1.60258,1.50527 2.48628,1.38502 0.88369,-0.12029 1.7953,-1.0198 2.02578,-1.99903 z m -219.054211,17.05536 c 0.245977,-1.04509 -0.302909,-2.23335 -1.21855,-2.64072 -1.931213,-0.85856 -4.337297,1.30092 -4.022989,3.61062 0.294638,2.16516 4.695316,1.35085 5.241539,-0.9699 z m 180.759441,-28.87366 c -1.57431,-2.87045 -5.32188,-1.7088 -4.88336,1.51373 0.20404,1.4993 1.03749,2.87491 1.85212,3.0569 2.18426,0.48795 4.16644,-2.50083 3.03124,-4.57063 z m -128.182826,11.47906 c -0.199333,-1.46474 -1.20071,-2.24576 -2.891969,-2.25561 -1.905248,-0.0111 -2.510089,0.55061 -2.294974,2.13138 0.160648,1.18055 0.696468,2.45395 1.190721,2.82982 1.699985,1.2927 4.300706,-0.46804 3.996222,-2.70559 z m 71.864786,-10.8286 c 0.21923,-0.93146 -0.44356,-2.21864 -1.47288,-2.86033 -1.50666,-0.93931 -2.16941,-0.775 -3.39966,0.84282 -0.84052,1.10528 -1.10866,2.51911 -0.59588,3.14187 1.3382,1.62528 4.99838,0.87273 5.46842,-1.12436 z m -41.57018,37.15619 c -1.7218,-0.77213 -2.36061,-2.57225 -3.2611,-9.18942 -1.44122,-10.59112 -0.33141,-12.13244 9.73867,-13.52726 7.90933,-1.09548 9.02343,-1.69616 10.45921,-5.63858 1.58197,-4.34368 0.80336,-5.14595 -1.7436,-1.7966 -2.1457,2.8217 -3.33223,3.2735 -11.52489,4.38836 l -9.13293,1.24281 -1.10213,4.13423 c -0.60615,2.27382 -0.92724,5.41954 -0.71345,6.99048 0.5262,3.86672 -3.0849,4.29452 -6.70196,0.79397 -2.12198,-2.05361 -2.96337,-4.27819 -3.7194,-9.83395 -1.39172,-10.22713 0.10484,-11.92276 11.94506,-13.53399 5.26406,-0.71635 8.96013,-1.69801 8.87059,-2.35604 -0.0845,-0.62039 -2.43771,-0.81714 -5.22955,-0.43724 -4.86052,0.66143 -5.09514,0.5505 -5.52559,-2.6127 -0.75812,-5.57124 1.70654,-7.50759 10.43305,-8.19672 9.63154,-0.7606 11.47614,0.34249 12.44199,7.44025 l 0.74872,5.50194 4.49056,-0.61108 c 3.94397,-0.5367 4.64374,-0.24738 5.74926,2.3771 1.78793,4.24462 2.58013,12.99312 1.45131,16.02751 -0.86773,2.33254 -1.90994,2.70452 -11.0703,3.95108 -5.98961,0.81507 -10.04984,1.83599 -9.95892,2.50412 0.0845,0.62039 2.94532,0.74808 6.35756,0.28374 l 6.20405,-0.84424 0.51846,3.80992 c 0.28516,2.09546 -0.11817,4.50319 -0.89626,5.35055 -1.95796,2.1322 -16.15021,4.98275 -18.82841,3.78176 z m 17.4673,-7.34355 c 0.0735,-1.30143 -0.65298,-1.8265 -2.22994,-1.61191 -1.28626,0.17503 -2.2466,0.99508 -2.13402,1.82227 0.47011,3.4548 4.16741,3.2766 4.36396,-0.21036 z m -18.81715,-35.62224 c 0.57375,-2.43774 -1.44622,-3.92636 -3.27955,-2.41684 -1.56135,1.28556 -0.29647,4.70406 1.64292,4.44013 0.65935,-0.0897 1.39581,-1.0002 1.63663,-2.02329 z m 101.75292,-18.53224 c -24.56796,-14.3852 -57.31827,-25.23872 -75.96803,-25.17594 l -5.58993,0.0188 -1.83269,9.26961 c -1.00795,5.09831 -1.86547,11.47138 -1.9056,14.16241 -0.0623,4.17306 -0.46656,4.9463 -2.74884,5.25687 -2.06879,0.28153 -2.759,-0.24699 -3.04241,-2.32971 -0.51369,-3.77487 2.31578,-22.1176 4.27636,-27.72249 1.54279,-4.41053 1.8668,-4.66306 5.95551,-4.6414 16.11291,0.0854 39.3049,5.33251 57.78143,13.07292 11.09332,4.64736 33.91487,16.91123 34.10777,18.32887 0.13693,1.00635 -1.95929,3.86248 -2.93202,3.99483 -0.38788,0.0528 -4.03359,-1.85284 -8.10155,-4.23477 z M 18.918953,-180.7894 c -2.084668,-0.52849 -2.531604,-5.40397 -0.592855,-6.46729 3.609555,-1.97969 7.789704,1.63749 5.723111,4.95233 -1.100567,1.76532 -2.505788,2.18029 -5.130256,1.51496 z m 221.945607,-31.01948 c -2.87722,-2.64207 0.18435,-7.24472 4.19167,-6.30155 2.35827,0.55507 2.93857,5.32605 0.7911,6.50384 -2.47892,1.35958 -3.31902,1.3255 -4.98277,-0.20229 z m -213.926512,19.69255 c -1.107594,-0.84226 -2.073014,-1.96647 -2.14538,-2.49824 -0.140105,-1.02953 2.552618,-4.94296 3.488772,-5.07036 0.306664,-0.0417 1.610925,0.31597 2.898352,0.79491 3.011536,1.12032 3.512866,4.80438 0.910208,6.68869 -2.616278,1.89417 -2.769507,1.89669 -5.15195,0.085 z m 101.078042,-13.4717 c -2.45212,-2.25175 -1.07288,-5.40327 2.39476,-5.47192 2.34812,-0.0463 3.08846,0.55666 3.38836,2.76052 0.44686,3.28376 -3.26476,5.02395 -5.78312,2.7114 z m 102.24071,-13.63169 c -2.83369,-1.17197 -3.21646,-4.84113 -0.69543,-6.66631 1.11261,-0.80555 2.27386,-1.49875 2.58054,-1.54049 0.93615,-0.12739 4.57669,2.92421 4.71675,3.95373 0.15871,1.16579 -2.61884,4.96615 -3.70127,5.06433 -0.42354,0.0385 -1.7288,-0.32666 -2.90059,-0.81126 z m -191.89086,15.92 c -2.385235,-1.46896 -2.756668,-2.2258 -1.974387,-4.02302 1.429896,-3.28511 6.339971,-4.19336 8.268575,-1.52951 1.766985,2.4406 1.418028,3.90532 -1.419913,5.95998 -1.456651,1.0546 -2.664159,0.95367 -4.874275,-0.40745 z m 88.29144,-11.43242 c -2.50866,-2.30365 -1.92538,-6.63864 1.00495,-7.46881 4.89301,-1.38623 8.00099,2.61602 5.04759,6.49985 -1.90879,2.51012 -4.00821,2.84622 -6.05254,0.96896 z m 88.95655,-12.54944 c -2.37124,-1.4389 -2.64083,-2.08615 -1.80486,-4.33333 1.73953,-4.67599 10.226,-3.43314 9.10415,1.33331 -0.80034,3.4004 -4.28156,4.83118 -7.29929,3.00002 z m -164.421607,13.90906 c -3.361458,-2.5562 -2.026139,-8.6857 2.011894,-9.2352 2.04101,-0.27775 6.052868,2.64612 6.31953,4.6057 0.502485,3.69253 -5.313596,6.92435 -8.331424,4.6295 z m 148.131357,-20.58465 c -2.64026,-2.00775 -2.81407,-3.91866 -0.596,-6.55217 3.23471,-3.84051 7.87251,-2.69361 8.52597,2.1084 0.64643,4.75024 -4.05926,7.38719 -7.92997,4.44377 z m -74.49155,6.19782 c -1.40967,-1.07197 -2.63208,-2.45663 -2.71651,-3.07704 -0.20423,-1.50061 3.42632,-6.21074 4.94669,-6.41762 4.95756,-0.67462 8.14856,4.96537 5.08708,8.9913 -2.05303,2.69983 -4.23175,2.84971 -7.31726,0.50338 z m -60.662726,5.30074 c -4.098064,-3.11631 -2.544879,-8.18836 2.727172,-8.90577 3.387935,-0.46105 5.893114,1.09208 6.273798,3.88955 0.349087,2.56528 -2.259304,5.90424 -4.892289,6.26254 -1.152182,0.15676 -3.001078,-0.40406 -4.108681,-1.24632 z m 119.569136,-16.27111 c -4.09808,-3.11631 -2.54488,-8.18836 2.72717,-8.90581 3.38794,-0.46103 5.89311,1.09211 6.27379,3.88956 0.34906,2.5653 -2.2593,5.90423 -4.89229,6.26256 -1.15217,0.15676 -3.0011,-0.40405 -4.10867,-1.24631 z m -104.726405,7.97963 c -3.674414,-3.09481 -2.262028,-8.15591 2.595542,-9.30076 4.372425,-1.03055 7.141322,0.41511 7.626703,3.98196 0.776037,5.70275 -5.740626,9.09348 -10.222245,5.3188 z m 87.038745,-11.31717 c -2.51563,-1.91297 -3.18481,-6.22981 -1.28623,-8.29736 0.78955,-0.85982 3.13123,-1.62954 5.20375,-1.71046 2.91208,-0.11376 4.10665,0.51669 5.2578,2.77478 2.80196,5.49633 -4.20027,11.01626 -9.17532,7.23304 z m -68.5364,5.89418 c -3.205759,-1.65173 -4.385426,-6.93012 -2.104043,-9.41454 2.205627,-2.40195 7.258033,-2.73459 9.301943,-0.61244 5.02149,5.21369 -0.80007,13.32339 -7.197899,10.027 z m 52.03953,-6.46254 c -5.0916,-1.2855 -5.73111,-9.64713 -0.89042,-11.64273 6.19163,-2.55257 11.91386,5.65865 7.06674,10.14053 -2.62344,2.42575 -2.56998,2.41273 -6.17632,1.5022 z m -26.99321,2.58333 c -5.56372,-0.48921 -9.86167,-3.09181 -13.05909,-7.90787 -3.65514,-5.50545 -4.08652,-8.53052 -2.1425,-15.02416 3.68725,-12.31664 19.34009,-16.67458 28.72596,-7.99762 12.62277,11.6694 3.54474,32.43047 -13.52439,30.92965 z m -7.61689,-39.86733 c -2.44312,-1.85786 -4.36639,-13.67412 -2.60307,-15.99295 0.66461,-0.87398 4.26912,-1.95964 8.35003,-2.51498 9.21408,-1.25386 11.18517,-2.7288 11.31902,-8.46997 0.21104,-9.04964 7.78757,-5.07138 9.13005,4.79397 1.104,8.11281 -0.99561,10.21995 -11.62475,11.66637 -4.88804,0.66518 -8.39527,1.62755 -8.30657,2.27927 0.0845,0.62042 2.43771,0.81717 5.22954,0.43725 4.84632,-0.65949 5.09615,-0.54306 5.52013,2.57261 0.53159,3.90634 -0.87473,4.83755 -8.96936,5.93907 -3.9789,0.54145 -6.71648,0.29966 -8.04502,-0.71064 z m 14.60268,-4.47693 c -0.96641,-2.86334 -4.74456,-2.68322 -4.35118,0.20742 0.21967,1.61428 1.04269,2.24015 2.65696,2.02048 1.61429,-0.21968 2.1391,-0.90981 1.69422,-2.22795 z m -28.39633,-7.42553 c -1.92129,-3.52883 -2.253794,-6.16108 -1.298276,-10.27767 1.074936,-4.63117 2.127506,-5.23299 11.392406,-6.51371 4.68718,-0.64792 8.11024,-1.61146 8.02225,-2.25814 -0.0845,-0.62042 -2.43773,-0.81718 -5.22956,-0.43727 -4.87337,0.66317 -5.0942,0.55737 -5.53065,-2.6498 -0.40127,-2.94882 0.0607,-3.55738 3.93939,-5.18941 2.72161,-1.14517 6.24849,-1.73747 9.26663,-1.55619 l 4.87269,0.29268 1.06966,7.86038 1.06964,7.8604 -8.20309,1.69075 c -6.89258,1.42061 -8.48939,2.163 -9.99496,4.64687 -0.98552,1.62587 -1.62683,4.16891 -1.42512,5.6512 0.30583,2.2474 -0.19997,2.77217 -3.04521,3.15935 -2.62458,0.35717 -3.75667,-0.16886 -4.90578,-2.27944 z m 14.11829,-23.10108 c -0.35757,-2.62766 -4.35141,-2.63613 -4.96939,-0.0105 -0.4909,2.08569 0.54721,2.91011 3.20839,2.54799 1.316,-0.17909 1.95639,-1.10181 1.761,-2.53746 z"
         style="fill:#000000;fill-opacity:1;stroke-width:1.13840699" />
    </g>
  </g>
  <g
     aria-label="Neural Nets
(with autograd)"
     style="font-style:normal;font-variant:normal;font-weight:normal;font-stretch:normal;font-size:19.75555611px;line-height:1.25;font-family:'Rock Salt';-inkscape-font-specification:'Rock Salt';text-align:center;letter-spacing:0px;word-spacing:0px;text-anchor:middle;fill:#000000;fill-opacity:1;stroke:none;stroke-width:0.26458332"
     id="text5963"
     transform="translate(-1.8968495,1.7387787)">
    <path
       style="font-size:19.75555611px;text-align:center;text-anchor:middle;stroke-width:0.26458332"
       d="m 46.838787,16.664468 c -1.79299,3.225123 -0.284074,9.373661 -1.408361,13.909926 -0.176175,5.606108 -5.727903,3.934258 -7.524086,0.289391 -1.323996,-1.548912 -3.85311,-10.201805 -3.954985,-4.012847 -0.411629,3.837657 -1.494901,7.761468 -1.234708,11.556228 -2.176545,2.366524 -3.264463,-2.402499 -1.446943,-4.321526 -0.131328,-2.537371 0.858872,-5.585197 1.234733,-8.006402 1.438324,-2.977367 -1.671609,-7.970746 0.270091,-9.993541 3.22171,0.957835 2.310155,6.10884 4.186479,8.585173 1.118852,1.911559 3.958187,9.539904 6.463002,6.327944 0.795373,-3.706036 0.862719,-7.01522 0.983927,-10.861698 0.303532,-2.458492 -0.634267,-4.85933 -1.041792,-7.080358 2.06365,-0.721287 2.576963,2.362617 3.472643,3.60771 z"
       id="path5967"
       inkscape:connector-curvature="0" />
    <path
       style="font-size:19.75555611px;text-align:center;text-anchor:middle;stroke-width:0.26458332"
       d="m 60.671536,22.240011 c -2.638597,1.579658 -10.448887,-0.544458 -9.819903,4.36011 1.81187,0.55398 7.620726,-2.20764 6.308656,1.041797 -2.139985,1.467856 -7.647252,-0.231176 -6.983892,3.414769 -0.883616,4.350909 4.646069,3.546434 5.324738,0.358736 3.969149,-3.330576 -0.281191,6.359264 -3.626997,5.081755 -3.51333,0.30628 -4.378968,-4.190928 -3.665566,-6.887439 0.542967,-2.361161 -0.602506,-6.211903 2.141467,-6.964608 2.895384,-1.58565 8.005549,-2.05728 10.321501,-0.405136 z"
       id="path5969"
       inkscape:connector-curvature="0" />
    <path
       style="font-size:19.75555611px;text-align:center;text-anchor:middle;stroke-width:0.26458332"
       d="m 71.764744,31.384672 c -3.35728,5.012 -4.068672,-5.884615 -6.173612,-0.212217 -2.861992,4.985962 -8.042084,1.030711 -5.903513,-3.49195 0.0023,-3.645076 4.859853,-7.076169 2.257237,-1.273305 -1.929688,2.627858 0.242005,6.717127 2.508036,3.37619 2.638674,-1.255044 1.461215,-7.120798 5.073934,-6.289369 0.964635,2.778992 -0.779813,6.62868 2.237918,7.890651 z"
       id="path5971"
       inkscape:connector-curvature="0" />
    <path
       style="font-size:19.75555611px;text-align:center;text-anchor:middle;stroke-width:0.26458332"
       d="m 97.07655,31.153162 c -3.053288,1.96572 -7.801824,1.183895 -11.421181,2.315097 -6.190422,2.472926 -8.52381,-4.638075 -2.102887,-6.733088 6.263288,-4.923403 -3.6736,-4.168506 -6.713797,-2.257218 -0.05655,2.979392 -1.357404,7.09704 1.061088,9.414766 -2.145803,4.553355 -4.395232,-4.338352 -3.221853,-6.771678 0.968815,-3.630565 -1.24067,-0.971956 -2.66237,-1.948542 -0.740162,-2.154294 3.926466,-3.103034 5.594832,-3.472656 3.179978,-0.319199 12.008644,-3.05367 10.360092,2.720238 -0.103403,2.584264 -10.030143,7.319509 -3.704173,7.311863 4.196346,-0.275862 8.460092,-1.409048 12.578735,-0.8103 l 0.231511,0.23151 z"
       id="path5973"
       inkscape:connector-curvature="0" />
    <path
       style="font-size:19.75555611px;text-align:center;text-anchor:middle;stroke-width:0.26458332"
       d="m 105.95111,33.101708 c -1.4225,1.540846 -4.63106,1.427815 -5.20909,-1.118964 -1.82081,-1.336753 -4.831522,0.63015 -7.253993,0.154324 -0.553498,1.905316 -5.127845,5.004727 -3.395494,1.254013 1.485086,-2.228174 3.564751,-5.050975 4.932476,-7.770244 1.177275,-2.215339 2.503834,-9.355951 4.887425,-4.538396 0.904776,3.460705 1.484096,8.749189 4.225126,9.70415 -2.74283,2.1449 0.75469,0.692926 1.81355,2.315117 z M 99.912551,30.014902 C 99.08453,26.601644 98.263024,19.97233 96.285556,26.850924 c -3.838491,4.661615 1.140263,3.45124 3.626995,3.163978 z"
       id="path5975"
       inkscape:connector-curvature="0" />
    <path
       style="font-size:19.75555611px;text-align:center;text-anchor:middle;stroke-width:0.26458332"
       d="m 116.31121,29.551882 c -0.82377,1.977268 -3.68727,2.787288 -5.68651,3.646281 -2.54312,1.02291 -5.06027,-1.321211 -4.3968,-4.092481 1.85253,-2.553283 -1.82121,-7.493279 2.07673,-7.83031 2.49491,2.477904 -0.86457,6.55438 0.50148,9.704145 2.34539,1.180661 5.24137,-2.193785 7.5051,-1.427635 z"
       id="path5977"
       inkscape:connector-curvature="0" />
    <path
       style="font-size:19.75555611px;text-align:center;text-anchor:middle;stroke-width:0.26458332"
       d="m 141.10212,16.664468 c -1.79299,3.225109 -0.28407,9.373659 -1.40835,13.909926 -0.17622,5.606109 -5.72796,3.934256 -7.52416,0.289391 -1.32401,-1.548928 -3.85304,-10.201786 -3.95502,-4.012847 -0.41173,3.83768 -1.49496,7.761545 -1.2349,11.556228 -2.17651,2.366511 -3.26465,-2.402389 -1.44703,-4.321526 -0.13134,-2.53731 0.8589,-5.585202 1.2348,-8.006402 1.43849,-2.977348 -1.67171,-7.97083 0.27011,-9.993541 3.29444,1.096824 2.34628,6.391013 4.37942,8.990316 0.96828,1.828882 4.09143,9.281086 6.27007,5.845631 0.81704,-3.674394 0.85171,-6.964027 0.98399,-10.784528 0.30348,-2.458464 -0.63425,-4.859341 -1.04185,-7.080358 2.06387,-0.721396 2.57674,2.363064 3.47292,3.60771 z"
       id="path5979"
       inkscape:connector-curvature="0" />
    <path
       style="font-size:19.75555611px;text-align:center;text-anchor:middle;stroke-width:0.26458332"
       d="m 154.93486,22.240011 c -2.6386,1.579659 -10.44887,-0.544459 -9.81993,4.36011 1.81189,0.553975 7.62072,-2.207635 6.3087,1.041797 -2.14001,1.467863 -7.64727,-0.231184 -6.984,3.414769 -0.88365,4.35093 4.64612,3.546425 5.32478,0.358736 3.96914,-3.330577 -0.28119,6.359262 -3.627,5.081755 -3.51341,0.306261 -4.37898,-4.19093 -3.6656,-6.887439 0.54302,-2.361149 -0.60258,-6.211916 2.14148,-6.964608 2.89543,-1.585656 8.00547,-2.057273 10.32158,-0.405136 z"
       id="path5981"
       inkscape:connector-curvature="0" />
    <path
       style="font-size:19.75555611px;text-align:center;text-anchor:middle;stroke-width:0.26458332"
       d="m 170.6197,22.104963 c -0.96269,3.399743 -4.70352,1.428915 -7.48565,2.700963 -4.90463,-1.474927 -3.03524,3.290469 -2.72033,6.077145 3.24989,-1.144828 0.5478,4.57805 -1.50483,2.700956 -2.80924,-1.644956 0.81861,-8.736941 -3.02902,-8.12217 -4.56989,1.405696 -2.83864,-3.238455 1.23471,-2.276505 4.25726,-0.395624 8.52032,-0.570193 12.27008,-2.04502 0.85691,-0.01022 0.32007,1.296295 1.23504,0.964631 z"
       id="path5983"
       inkscape:connector-curvature="0" />
    <path
       style="font-size:19.75555611px;text-align:center;text-anchor:middle;stroke-width:0.26458332"
       d="m 178.12449,32.079204 c 0.15099,3.349847 -9.0055,5.866857 -7.46621,1.929256 5.55647,1.011638 6.6037,-4.023146 0.7331,-3.125381 -4.92404,-0.128003 -5.14747,-5.13504 -1.79418,-7.446911 1.23183,-1.378957 6.6112,-4.820355 5.0933,-0.598074 -1.83349,0.752011 -7.13513,3.287324 -4.39871,5.633418 2.64638,0.714541 7.29875,-0.192662 7.8327,3.607692 z"
       id="path5985"
       inkscape:connector-curvature="0" />
    <path
       style="font-size:19.75555611px;text-align:center;text-anchor:middle;stroke-width:0.26458332"
       d="M 16.134718,65.030854 C 12.296798,65.306142 9.3363908,61.010809 8.8421392,57.54535 8.6838511,52.991249 9.9371314,47.744814 12.724088,44.195781 c 2.012515,-1.612426 3.091076,1.512663 1.327031,2.487869 -2.771832,3.341877 -3.881396,8.877387 -2.353677,13.022461 0.379838,2.837904 3.20544,3.298544 4.437276,5.324743 z"
       id="path5987"
       inkscape:connector-curvature="0" />
    <path
       style="font-size:19.75555611px;text-align:center;text-anchor:middle;stroke-width:0.26458332"
       d="m 32.996393,46.876578 c -1.30946,2.445154 0.749039,7.13648 -2.488737,9.395467 -3.306026,4.600306 -5.469103,-4.63147 -7.948524,0.636653 -3.6585,4.576315 -8.287518,-0.926329 -5.633423,-5.035355 0.924617,-2.498836 1.269283,-12.758697 3.221854,-6.096441 0.561729,3.303374 -4.170401,9.477458 -0.212215,10.900277 2.44922,-1.40133 4.675086,-3.442389 4.842435,-6.366525 0.03442,-5.05423 3.581019,0.0614 2.276531,2.662369 1.578466,6.478413 5.6569,-3.815921 3.58841,-6.443706 -1.553467,-2.454752 0.826119,-4.734147 1.797389,-1.367721 0.36547,0.568822 0.436989,1.06505 0.55628,1.714982 z"
       id="path5989"
       inkscape:connector-curvature="0" />
    <path
       style="font-size:19.75555611px;text-align:center;text-anchor:middle;stroke-width:0.26458332"
       d="m 38.398303,56.561431 c -3.687073,2.630136 -3.88574,-4.860935 -2.93247,-7.061066 -0.358214,-5.875135 3.671651,0.843442 1.543408,3.877808 -0.224442,1.964281 0.930605,1.560805 1.389062,3.183258 z"
       id="path5991"
       inkscape:connector-curvature="0" />
    <path
       style="font-size:19.75555611px;text-align:center;text-anchor:middle;stroke-width:0.26458332"
       d="m 56.841966,46.799408 c -0.962619,3.399751 -4.703387,1.428922 -7.485498,2.700963 -4.904609,-1.47495 -3.035224,3.290517 -2.720251,6.077144 3.098245,-1.07128 0.809354,4.173296 -1.389067,2.874589 -2.872175,-1.609089 0.530399,-8.505323 -2.855288,-8.257202 -4.264602,1.303772 -3.900292,-2.848819 0.694526,-2.353675 4.334982,-0.268633 8.698325,-0.536607 12.520855,-2.006441 0.856877,-0.01044 0.320005,1.296185 1.234723,0.964622 z"
       id="path5993"
       inkscape:connector-curvature="0" />
    <path
       style="font-size:19.75555611px;text-align:center;text-anchor:middle;stroke-width:0.26458332"
       d="m 66.179554,50.194894 c -2.350737,1.512566 -1.313585,4.860509 -0.887451,7.331161 -0.01561,3.995631 -2.918695,1.239207 -2.469444,-1.717031 1.179661,-4.671928 -3.129779,-5.892292 -5.459791,-2.122179 0.20027,2.74934 2.291697,7.337825 -1.697745,3.916385 0.0038,-3.980828 -0.538329,-4.498165 -3.877798,-3.588411 1.277868,-2.825268 6.125972,-3.324461 4.109315,-8.29579 1.507729,-3.761183 2.67154,2.824503 1.774901,4.610913 5.587821,1.261487 4.652628,-3.17554 4.958191,-6.308656 3.302695,0.274743 0.534743,5.397752 3.549822,6.173608 z"
       id="path5995"
       inkscape:connector-curvature="0" />
    <path
       style="font-size:19.75555611px;text-align:center;text-anchor:middle;stroke-width:0.26458332"
       d="m 89.870788,57.796153 c -1.422511,1.54085 -4.630928,1.427797 -5.208976,-1.118964 -1.820811,-1.336761 -4.831522,0.630169 -7.253993,0.154336 -0.553498,1.905316 -5.127845,5.004727 -3.395494,1.254013 1.485086,-2.228174 3.564751,-5.050975 4.932476,-7.770244 1.177275,-2.21534 2.503835,-9.35595 4.887425,-4.538394 0.90476,3.460692 1.484082,8.749192 4.225066,9.70414 -2.742905,2.144897 0.754697,0.692929 1.813496,2.315113 z m -6.038564,-3.086805 c -0.828014,-3.413257 -1.649531,-10.042574 -3.627005,-3.163979 -3.83849,4.661617 1.140261,3.451239 3.627005,3.163979 z"
       id="path5997"
       inkscape:connector-curvature="0" />
    <path
       style="font-size:19.75555611px;text-align:center;text-anchor:middle;stroke-width:0.26458332"
       d="m 101.73569,56.079118 c -3.357273,5.011999 -4.06867,-5.884616 -6.173607,-0.212218 -2.861991,4.985962 -8.042086,1.03071 -5.903513,-3.49195 0.0023,-3.645076 4.859853,-7.076169 2.257236,-1.273305 -1.929689,2.627853 0.242002,6.717129 2.508033,3.37619 2.638673,-1.255045 1.461215,-7.120798 5.073934,-6.289368 0.964637,2.778994 -0.779815,6.628671 2.237917,7.890651 z"
       id="path5999"
       inkscape:connector-curvature="0" />
    <path
       style="font-size:19.75555611px;text-align:center;text-anchor:middle;stroke-width:0.26458332"
       d="m 118.98322,46.799408 c -0.96268,3.399748 -4.70352,1.428912 -7.48564,2.700963 -4.90462,-1.474932 -3.03526,3.290477 -2.72033,6.077144 3.24989,-1.144827 0.5478,4.578049 -1.50484,2.700957 -2.80923,-1.644961 0.81862,-8.736962 -3.02901,-8.12215 -4.569891,1.405691 -2.83868,-3.238442 1.2347,-2.276515 4.25727,-0.395626 8.52031,-0.570191 12.27008,-2.045021 0.85691,-0.01023 0.32007,1.296314 1.23504,0.964622 z"
       id="path6001"
       inkscape:connector-curvature="0" />
    <path
       style="font-size:19.75555611px;text-align:center;text-anchor:middle;stroke-width:0.26458332"
       d="m 128.49444,48.03413 c -0.32089,3.627495 -1.21028,8.211272 -5.26687,9.376168 -3.8211,3.489725 -10.48523,-1.125091 -6.77165,-5.710591 1.95869,-2.903758 4.81793,-5.491957 8.43089,-6.424417 1.86868,-0.08687 2.98537,1.125153 3.60763,2.75884 z m -1.92926,1.003212 c -1.90605,-1.75538 -3.99847,-0.887664 -5.9421,1.099683 -6.16815,3.803972 -0.0357,9.399633 3.99356,4.20577 1.3457,-1.438407 1.68371,-3.454501 1.94854,-5.305453 z"
       id="path6003"
       inkscape:connector-curvature="0" />
    <path
       style="font-size:19.75555611px;text-align:center;text-anchor:middle;stroke-width:0.26458332"
       d="m 149.92845,48.535736 c -1.33955,1.153564 -2.9402,0.349886 -4.72676,1.118951 -3.82066,-0.01617 -6.62025,2.944565 -3.86817,6.207371 2.90073,2.815239 0.69649,6.577454 -1.80385,1.876197 -3.58329,0.666246 -8.46956,1.388181 -10.31672,-2.643086 -0.89184,-3.751083 2.42797,-7.534057 5.37781,-9.74273 5.72536,-2.251826 2.51396,2.024009 -0.23154,2.971043 -2.7746,1.077695 -5.14372,6.961662 -0.90677,8.102872 4.33782,2.382591 7.83896,-2.735197 4.34085,-4.456573 -1.95949,2.360198 -5.99039,0.244882 -2.64295,-1.138259 4.27305,-1.358631 8.72915,-2.9797 13.31193,-3.472652 0.95102,0.03984 1.52408,0.193579 1.46617,1.176866 z"
       id="path6005"
       inkscape:connector-curvature="0" />
    <path
       style="font-size:19.75555611px;text-align:center;text-anchor:middle;stroke-width:0.26458332"
       d="m 169.02806,55.847607 c -3.05328,1.965725 -7.80183,1.183888 -11.42118,2.315108 -6.19042,2.472915 -8.5238,-4.638092 -2.10288,-6.733097 6.26327,-4.923407 -3.67359,-4.168503 -6.71382,-2.257219 -0.0565,2.979292 -1.35757,7.097221 1.06118,9.414757 -2.14581,4.553356 -4.39521,-4.338379 -3.22185,-6.771678 0.96888,-3.630588 -1.24073,-0.971941 -2.66243,-1.948541 -0.74022,-2.154286 3.92646,-3.103037 5.59482,-3.472656 3.17998,-0.3192 12.00863,-3.05367 10.36009,2.720238 -0.10342,2.584283 -10.0302,7.319519 -3.70413,7.311874 4.19635,-0.27587 8.4601,-1.409027 12.57875,-0.81029 l 0.23151,0.23151 z"
       id="path6007"
       inkscape:connector-curvature="0" />
    <path
       style="font-size:19.75555611px;text-align:center;text-anchor:middle;stroke-width:0.26458332"
       d="m 177.90262,57.796153 c -1.42252,1.540843 -4.63107,1.42782 -5.20911,-1.118964 -1.82081,-1.336762 -4.83152,0.63017 -7.25399,0.154336 -0.55355,1.905295 -5.12791,5.004742 -3.3955,1.254013 1.48499,-2.228165 3.56474,-5.050979 4.93247,-7.770243 1.17735,-2.215361 2.50379,-9.355944 4.8874,-4.538395 0.90479,3.460693 1.48409,8.7492 4.22513,9.70414 -2.74282,2.144882 0.7547,0.692963 1.8136,2.315113 z m -6.03857,-3.086805 c -0.82806,-3.413256 -1.64951,-10.042575 -3.62699,-3.163979 -3.8385,4.661634 1.14021,3.451232 3.62699,3.163979 z"
       id="path6009"
       inkscape:connector-curvature="0" />
    <path
       style="font-size:19.75555611px;text-align:center;text-anchor:middle;stroke-width:0.26458332"
       d="m 190.71287,49.693288 c -0.81755,4.330348 -4.84468,7.768694 -8.85525,9.298998 -2.18619,-0.825932 -3.50122,-2.718187 -3.02897,-5.016048 0.8278,-3.916566 0.35249,-5.926044 -2.72026,-6.212196 1.33,-2.649119 5.27934,-2.357055 7.96788,-2.758822 3.042,-0.175699 5.97032,1.649621 6.6366,4.688068 z m -1.79421,0.289388 c -0.87482,-3.34919 -5.25254,-3.534205 -7.83277,-2.334403 0.97571,2.281359 -2.05267,6.908535 0.77169,8.778101 0.76203,0.824278 3.42031,-1.31986 4.36013,-2.45016 1.11614,-1.137372 2.44055,-2.321538 2.70095,-3.993538 z"
       id="path6011"
       inkscape:connector-curvature="0" />
    <path
       style="font-size:19.75555611px;text-align:center;text-anchor:middle;stroke-width:0.26458332"
       d="m 198.1405,55.481049 c -0.0738,4.079386 -2.25844,7.731706 -4.89063,10.495136 -3.41759,-0.423946 1.30997,-3.880403 1.43735,-5.864931 2.41247,-4.31695 1.13876,-9.303977 -1.00333,-13.427601 -3.18558,-3.485663 1.67177,-2.429343 2.52734,0.771704 1.02446,2.568646 2.01687,5.208367 1.92927,8.025692 z"
       id="path6013"
       inkscape:connector-curvature="0" />
  </g>
</svg>
