<?xml version="1.0" encoding="UTF-8" standalone="no"?>
<svg
   xmlns:dc="http://purl.org/dc/elements/1.1/"
   xmlns:cc="http://creativecommons.org/ns#"
   xmlns:rdf="http://www.w3.org/1999/02/22-rdf-syntax-ns#"
   xmlns:svg="http://www.w3.org/2000/svg"
   xmlns="http://www.w3.org/2000/svg"
   xmlns:sodipodi="http://sodipodi.sourceforge.net/DTD/sodipodi-0.dtd"
   xmlns:inkscape="http://www.inkscape.org/namespaces/inkscape"
   id="svg14023"
   version="1.1"
   viewBox="0 0 270.93333 67.733335"
   height="256"
   width="1024"
   sodipodi:docname="preparation.svg"
   inkscape:version="0.92.4 5da689c313, 2019-01-14">
  <sodipodi:namedview
     pagecolor="#ffffff"
     bordercolor="#666666"
     borderopacity="1"
     objecttolerance="10"
     gridtolerance="10"
     guidetolerance="10"
     inkscape:pageopacity="0"
     inkscape:pageshadow="2"
     inkscape:window-width="1920"
     inkscape:window-height="1061"
     id="namedview4853"
     showgrid="false"
     inkscape:zoom="1.6738281"
     inkscape:cx="512"
     inkscape:cy="104.10268"
     inkscape:window-x="0"
     inkscape:window-y="19"
     inkscape:window-maximized="0"
     inkscape:current-layer="svg14023" />
  <defs
     id="defs14017" />
  <metadata
     id="metadata14020">
    <rdf:RDF>
      <cc:Work
         rdf:about="">
        <dc:format>image/svg+xml</dc:format>
        <dc:type
           rdf:resource="http://purl.org/dc/dcmitype/StillImage" />
        <dc:title></dc:title>
      </cc:Work>
    </rdf:RDF>
  </metadata>
  <g
     transform="matrix(-0.125,0,0,0.125,271.09292,39.075001)"
     id="layer1">
    <g
       transform="translate(22.199066,-67.172763)"
       id="g15588">
      <path
         style="fill:#3771c8;fill-opacity:1;stroke:none;stroke-width:0.26458332px;stroke-linecap:butt;stroke-linejoin:miter;stroke-opacity:1"
         d="M 5.6126599,295.12908 158.7581,295.39637 158.49083,38.550353 309.94048,38.842241 308.6963,-36.552387 c 0,0 -2.93997,-21.381561 -14.43254,-33.408689 -11.4926,-12.02713 -38.77012,-23.056686 -59.06658,-26.459685 -44.63401,-7.483549 -110.11504,-8.018079 -155.016324,0.534541 -12.602359,2.400449 -36.081384,9.354433 -51.048477,27.796029 -14.967094,18.441598 -21.6488324,34.2105 -21.3815627,43.832203 0.2672693,9.621702 -2.1381564,319.387068 -2.1381564,319.387068 z"
         id="path14197" />
      <circle
         style="fill:#ffffff;fill-opacity:1;stroke:none;stroke-width:0.79374999;stroke-miterlimit:4;stroke-dasharray:none;stroke-opacity:1"
         id="path14199"
         cx="243.79465"
         cy="-28.815496"
         r="30.238094" />
      <path
         style="fill:#000000;fill-opacity:1;stroke:none;stroke-width:0.26458332px;stroke-linecap:butt;stroke-linejoin:miter;stroke-opacity:1"
         d="M 81.517206,-89.204479 218.3592,-90.006296 c 0,0 13.09621,4.543587 27.79603,4.276317 14.69982,-0.26727 24.85607,-2.40543 29.93419,-5.078117 5.07813,-2.6727 5.34538,-2.6727 4.81084,-9.087167 -0.53453,-6.414467 -12.02711,-9.888977 -18.17432,-9.621707 -6.1472,0.26727 -13.89801,-1.60361 -13.89801,-1.60361 0,0 -2.6727,-19.51068 -10.42351,-42.22859 -7.75082,-22.71791 -22.45064,-35.81411 -34.74504,-49.17759 -12.2944,-13.36348 -20.04522,-13.63075 -20.04522,-13.63075 0,0 9.88897,-5.61266 9.35444,-13.36347 -0.53454,-7.75082 -10.15625,-13.36348 -18.70887,-13.09621 -8.55262,0.26727 -12.6953,1.06908 -15.23436,3.34087 -2.53906,2.27179 -2.53906,4.00904 -2.53906,4.00904 0,0 -2.00453,-1.73725 -4.67722,-1.60362 -2.6727,0.13364 -6.1472,1.73726 -6.1472,1.73726 0,0 -5.47902,-6.54811 -7.34991,-7.21628 -1.87089,-0.66817 -4.27631,-2.27179 -10.02261,-2.00452 -5.74629,0.26727 -16.70434,4.40995 -16.43707,12.82894 0.26726,8.41899 6.68173,13.36347 9.35443,14.56618 2.6727,1.20272 -16.43708,7.34992 -22.183371,14.29893 -5.746295,6.949 -27.127858,28.73147 -32.740517,47.17307 -5.612659,18.44159 -9.888972,29.93418 -10.156243,41.96131 -0.267269,12.02713 -1.336347,12.02713 -1.336347,12.02713 0,0 -18.174327,3.207237 -30.201456,10.156244 -12.027128,6.949007 -24.85606551,14.165281 -24.32152649,23.519716 0.53453905,9.354431 15.50163249,10.156241 22.98517849,8.552625 7.483547,-1.603619 24.321527,-5.879931 33.408691,-11.225321 9.087165,-5.345389 14.165284,-6.949009 18.174327,-10.958046 4.009043,-4.009047 6.68174,-7.750817 6.68174,-7.750817 z"
         id="path14172" />
      <path
         style="fill:#000000;fill-opacity:1;stroke:none;stroke-width:0.26458332px;stroke-linecap:butt;stroke-linejoin:miter;stroke-opacity:1"
         d="m 304.45982,56.22915 c 0,0 -8.31548,10.205349 -19.2768,12.095241 -10.96129,1.889866 -13.04017,3.023817 -25.1354,2.456842 -12.09524,-0.566976 -16.44197,-3.96875 -24.19048,-3.96875 -7.74851,0 -12.28423,0.188992 -18.33184,-5.669651 -6.04762,-5.858615 -15.11905,-16.819932 -16.06399,-22.86754 -0.94494,-6.047634 -2.26786,-8.882459 -1.13393,-10.772325 1.13393,-1.889892 4.7247,-2.834825 7.55952,-0.188992 2.83482,2.645833 3.77976,6.614583 7.37054,6.614583 3.59077,0 15.68601,-4.157741 19.27678,-7.37055 3.59078,-3.212783 13.79613,-9.449393 20.41072,-10.961299 6.61458,-1.511906 12.8512,-4.535715 18.52082,-3.779761 5.66965,0.755952 17.5759,3.401785 23.62351,10.205361 6.04763,6.803575 12.85121,16.819932 12.85121,16.819932 L 309.5625,12.005935 c 0,0 11.90625,1.511906 16.25298,4.535715 4.34671,3.023809 8.31546,6.614583 13.41816,8.693441 5.10267,2.078884 7.18153,3.96875 10.01636,3.212809 2.83482,-0.755941 4.34673,-6.992567 8.69344,-6.425591 4.34673,0.566949 3.4018,3.590766 3.77978,5.291666 0.37796,1.700901 -3.21281,11.90625 -6.04763,15.119032 -2.83483,3.212809 -7.18154,10.583334 -11.71726,11.717285 -4.53573,1.133925 -12.66219,3.401774 -19.27678,2.645833 -6.61458,-0.755967 -20.22173,-0.566975 -20.22173,-0.566975 z"
         id="path14174" />
    </g>
  </g>
  <g
     aria-label="Preparation"
     style="font-style:normal;font-variant:normal;font-weight:normal;font-stretch:normal;font-size:19.75555611px;line-height:1.25;font-family:'Rock Salt';-inkscape-font-specification:'Rock Salt';letter-spacing:0px;word-spacing:0px;fill:#000000;fill-opacity:1;stroke:none;stroke-width:0.26458332"
     id="text4857"
     transform="translate(2.8452742,-0.94842474)">
    <path
       style="font-size:19.75555611px;stroke-width:0.26458332"
       d="m 24.450991,26.088759 c -0.649758,4.231924 -4.048563,7.319579 -6.752393,10.321509 -1.619448,3.28165 -7.070662,3.680763 -7.292578,7.196118 2.361753,1.91812 -1.440395,6.683553 -2.0064232,1.369767 0.3920333,-5.505803 2.0925882,-10.719512 1.7170282,-16.225022 0.547618,-5.559462 -5.931093,4.120376 -6.424402,-0.829581 2.1436084,-1.942761 5.1498123,-3.139121 8.044987,-4.398685 2.99186,-1.587327 6.409716,-2.534769 10.012826,-2.025716 2.492164,0.284104 2.783226,2.613519 2.700955,4.59161 z m -1.794206,-0.46302 c -0.53083,-3.09126 -4.364612,-2.191224 -6.462995,-1.678447 -4.154537,0.440685 -5.255179,3.27029 -4.128601,6.945318 -0.221652,2.786804 -0.577736,5.488859 -0.964625,8.315077 3.91112,-1.692115 6.752482,-5.697344 9.45334,-8.951736 0.869221,-1.489759 1.8938,-2.735981 2.102881,-4.630212 z"
       id="path4859"
       inkscape:connector-curvature="0" />
    <path
       style="font-size:19.75555611px;stroke-width:0.26458332"
       d="m 48.007176,40.191603 c -2.451321,1.828425 -6.800345,1.094213 -9.781316,1.948543 -3.276617,1.762953 -11.347775,0.01179 -6.385829,-4.475875 3.205332,-1.390445 7.874172,-7.088329 1.080382,-5.479078 -4.877226,-0.56237 -6.590678,3.013971 -5.459785,7.524094 1.52193,1.829277 1.777969,7.004363 -1.331185,3.39549 -1.772717,-2.47321 0.468412,-7.736136 -1.080385,-9.028907 -1.481588,1.649852 -3.918678,-0.980015 -1.118967,-1.697748 2.789677,-1.727754 5.770185,-1.655158 9.106076,-2.31511 4.169705,-1.868139 8.991657,2.009068 4.44693,5.545403 -2.122576,1.439223 -7.66805,6.310438 -1.553055,5.079958 3.733582,-0.450327 7.441983,-0.912948 11.131795,-0.921216 0.310183,0.146136 0.764919,0.05195 0.945339,0.424446 z"
       id="path4861"
       inkscape:connector-curvature="0" />
    <path
       style="font-size:19.75555611px;stroke-width:0.26458332"
       d="m 54.74027,31.278451 c -2.638597,1.579666 -10.448885,-0.544443 -9.819903,4.36012 1.813981,0.549148 7.618925,-2.20454 6.308656,1.041804 -2.139983,1.46786 -7.647249,-0.231179 -6.983888,3.414768 -0.859871,4.308239 4.529163,3.567531 5.324737,0.435118 3.877648,-3.565941 -0.178065,6.308912 -3.626997,5.005372 -3.333346,0.350189 -4.349622,-3.915921 -3.723447,-6.540173 0.683686,-2.025309 -0.654031,-6.085852 1.601288,-6.75239 2.754568,-2.659555 7.164874,-1.629968 10.726649,-1.659149 l 0.09646,0.366558 0.09646,0.327973 z"
       id="path4863"
       inkscape:connector-curvature="0" />
    <path
       style="font-size:19.75555611px;stroke-width:0.26458332"
       d="m 68.881698,32.821854 c -0.370673,3.39145 -4.211309,4.759688 -7.00319,6.09644 -2.070067,2.814035 -6.830103,0.157096 -1.794205,-0.926031 1.904346,-1.446646 6.749441,-2.081426 6.077149,-4.977476 -3.022368,-0.961569 -6.619021,-0.443446 -9.202539,1.311872 -0.163778,2.585035 -1.198495,6.94428 0.73312,8.29579 3.856468,0.858201 -4.277939,4.040293 -3.144685,-0.655949 0.215981,-3.308307 -0.372449,-5.844622 -0.810292,-8.199336 1.677213,-2.049367 4.747017,-2.118211 7.176824,-2.913157 2.576251,-0.677835 6.001694,-0.649129 7.96782,1.678443 z"
       id="path4865"
       inkscape:connector-curvature="0" />
    <path
       style="font-size:19.75555611px;stroke-width:0.26458332"
       d="m 82.097088,42.140149 c -1.109213,1.1635 -3.422995,1.490065 -4.572324,0.09647 -0.82247,-3.127842 -4.13441,-1.069825 -6.405128,-1.041815 -2.635794,-1.235207 -3.656034,5.500262 -5.459795,2.276519 0.790346,-2.518304 3.611043,-4.451028 4.572334,-7.215408 1.551673,-2.296464 2.385283,-5.422545 3.549825,-7.697732 4.174861,0.05206 2.486621,7.522233 4.784548,10.475844 4.03654,-0.1789 -1.362119,2.922869 3.028928,2.411569 l 0.250803,0.366558 0.250803,0.327973 z m -6.038563,-3.086806 c -0.76403,-1.543653 -1.102643,-8.625276 -2.565917,-5.421204 -3.444856,4.258632 -2.621666,6.933267 2.469444,5.594843 l 0.09646,-0.173633 z"
       id="path4867"
       inkscape:connector-curvature="0" />
    <path
       style="font-size:19.75555611px;stroke-width:0.26458332"
       d="m 106.23205,40.191603 c -2.45133,1.828424 -6.800345,1.094214 -9.781317,1.948543 -3.276617,1.762953 -11.347776,0.01179 -6.385829,-4.475875 3.205331,-1.390445 7.874172,-7.088328 1.080382,-5.479078 -4.877223,-0.562373 -6.590678,3.013976 -5.459785,7.524094 1.521931,1.829278 1.777967,7.004363 -1.331186,3.39549 -1.772715,-2.473211 0.468413,-7.736136 -1.080384,-9.028907 -1.481588,1.649851 -3.918678,-0.980014 -1.118967,-1.697748 2.789677,-1.727753 5.770185,-1.655158 9.106077,-2.31511 4.169705,-1.868139 8.991659,2.009068 4.446929,5.545403 -2.122576,1.439223 -7.66805,6.310439 -1.553055,5.079958 3.733581,-0.450327 7.441985,-0.912947 11.131795,-0.921216 0.31018,0.146138 0.76492,0.05195 0.94534,0.424446 z"
       id="path4869"
       inkscape:connector-curvature="0" />
    <path
       style="font-size:19.75555611px;stroke-width:0.26458332"
       d="m 115.10662,42.140149 c -1.10921,1.163503 -3.42311,1.490073 -4.57245,0.09647 -0.82247,-3.127842 -4.13441,-1.069824 -6.40513,-1.041815 -2.63581,-1.23521 -3.65608,5.500261 -5.459838,2.276519 0.790367,-2.518301 3.611008,-4.451038 4.572368,-7.215408 1.55162,-2.296465 2.38541,-5.422594 3.5498,-7.697732 4.17484,0.05206 2.48666,7.522221 4.78458,10.475844 4.03656,-0.178899 -1.36203,2.92286 3.02899,2.411569 l 0.2508,0.366558 0.25081,0.327973 z m -6.03857,-3.086806 c -0.76407,-1.543661 -1.10265,-8.625274 -2.5659,-5.421204 -3.44484,4.258636 -2.62173,6.933264 2.46941,5.594843 l 0.0965,-0.173633 z"
       id="path4871"
       inkscape:connector-curvature="0" />
    <path
       style="font-size:19.75555611px;stroke-width:0.26458332"
       d="m 130.57923,31.143404 c -0.95845,3.401924 -4.70642,1.427499 -7.48562,2.700961 -4.90462,-1.474932 -3.03526,3.290476 -2.72033,6.077143 3.24795,-1.147468 0.54756,4.577201 -1.50483,2.700957 -2.80924,-1.644969 0.81862,-8.736932 -3.02899,-8.12217 -3.19584,1.57006 -4.29701,-2.682035 0.0386,-2.064301 3.78512,-0.519205 7.81883,-0.666027 11.34404,-1.543414 1.80284,-0.561482 2.18848,-0.928507 3.35715,0.250824 z"
       id="path4873"
       inkscape:connector-curvature="0" />
    <path
       style="font-size:19.75555611px;stroke-width:0.26458332"
       d="m 132.04546,40.905427 c -3.17977,2.534062 -4.11651,-3.87369 -3.00964,-6.019268 -1.44117,-2.677586 2.07938,-5.744128 1.98718,-1.273299 -0.37996,2.864834 -0.7638,5.361686 1.02246,7.292567 z"
       id="path4875"
       inkscape:connector-curvature="0" />
    <path
       style="font-size:19.75555611px;stroke-width:0.26458332"
       d="m 146.09043,32.378126 c -0.37859,3.263145 -0.88255,7.163275 -4.09003,8.932439 -3.48499,3.325546 -11.10146,1.147901 -8.45492,-4.408345 1.92677,-3.35371 4.89369,-6.046094 8.72511,-7.263643 1.96478,-0.186787 3.16042,1.005535 3.81984,2.739549 z m -1.92926,1.003212 c -1.75178,-1.521091 -3.58098,-1.152524 -5.4405,0.636661 -3.78867,1.768486 -4.528,9.016105 1.17684,6.270071 2.92851,-1.054018 3.99491,-4.099456 4.26366,-6.906732 z"
       id="path4877"
       inkscape:connector-curvature="0" />
    <path
       style="font-size:19.75555611px;stroke-width:0.26458332"
       d="m 160.11611,30.873308 c -1.83356,2.610913 0.15527,6.218699 -0.15432,9.35688 0.61853,5.835043 -6.01959,5.165268 -7.7556,0.945334 -1.28737,-2.080435 -2.62702,-4.578387 -2.91313,-1.099672 -2.3593,2.409796 2.7033,5.647864 -1.29253,6.154318 -3.02825,-2.402849 -0.16394,-7.122937 0.11574,-10.263636 -0.45272,-2.309748 1.5035,-8.583422 2.9518,-3.434072 0.63934,3.63479 2.23007,7.636135 5.60453,9.892249 2.82839,-0.896262 0.9235,-6.21877 1.00915,-8.710324 -0.74098,-2.625385 -1.08809,-5.596178 2.43436,-2.841077 z"
       id="path4879"
       inkscape:connector-curvature="0" />
  </g>
</svg>
